<mxfile host="Electron" compressed="false" modified="2022-06-27T21:55:54.843Z" agent="5.0 (X11; Linux x86_64) AppleWebKit/537.36 (KHTML, like Gecko) draw.io/19.0.3 Chrome/100.0.4896.160 Electron/18.2.4 Safari/537.36" version="19.0.3" etag="DOhoaAkU5sQe2qE5GkSi" type="device">
  <diagram id="44Au20CLPYJDy2g142md" name="Página-1">
    <mxGraphModel dx="2489" dy="905" grid="1" gridSize="10" guides="1" tooltips="1" connect="1" arrows="1" fold="1" page="1" pageScale="1" pageWidth="827" pageHeight="1169" math="0" shadow="0">
      <root>
        <mxCell id="0" />
        <mxCell id="1" parent="0" />
        <mxCell id="2" value="&lt;b&gt;&lt;font style=&quot;font-size: 17px&quot;&gt;diseno&lt;br&gt;de pagina&lt;/font&gt;&lt;/b&gt;" style="rounded=0;whiteSpace=wrap;html=1;" parent="1" vertex="1">
          <mxGeometry x="100" y="90" width="170" height="220" as="geometry" />
        </mxCell>
        <mxCell id="4" value="" style="rounded=0;whiteSpace=wrap;html=1;" parent="1" vertex="1">
          <mxGeometry x="-50" y="270" width="200" height="230" as="geometry" />
        </mxCell>
        <mxCell id="5" value="" style="rounded=0;whiteSpace=wrap;html=1;" parent="1" vertex="1">
          <mxGeometry x="220" y="270" width="200" height="230" as="geometry" />
        </mxCell>
        <mxCell id="8" value="&lt;b&gt;Schemas&lt;/b&gt;" style="text;html=1;strokeColor=none;fillColor=none;align=center;verticalAlign=middle;whiteSpace=wrap;rounded=0;fontSize=17;" parent="1" vertex="1">
          <mxGeometry x="-32" y="280" width="60" height="30" as="geometry" />
        </mxCell>
        <mxCell id="10" value="- contenido&lt;br&gt;- visual diseno&lt;br&gt;- visual assets" style="text;html=1;strokeColor=none;fillColor=none;align=left;verticalAlign=middle;whiteSpace=wrap;rounded=0;fontSize=17;" parent="1" vertex="1">
          <mxGeometry x="-40" y="320" width="130" height="30" as="geometry" />
        </mxCell>
        <mxCell id="12" value="&lt;b&gt;plantillas&lt;/b&gt;" style="text;html=1;strokeColor=none;fillColor=none;align=center;verticalAlign=middle;whiteSpace=wrap;rounded=0;fontSize=17;" parent="1" vertex="1">
          <mxGeometry x="250" y="290" width="60" height="30" as="geometry" />
        </mxCell>
        <mxCell id="13" value="- html&lt;br&gt;- css" style="text;html=1;strokeColor=none;fillColor=none;align=left;verticalAlign=middle;whiteSpace=wrap;rounded=0;fontSize=17;" parent="1" vertex="1">
          <mxGeometry x="240" y="340" width="130" height="30" as="geometry" />
        </mxCell>
        <mxCell id="14" value="&lt;b&gt;&lt;font style=&quot;font-size: 25px&quot;&gt;Proceso simple&lt;br&gt;&lt;/font&gt;&lt;/b&gt;" style="text;html=1;strokeColor=none;fillColor=none;align=center;verticalAlign=middle;whiteSpace=wrap;rounded=0;fontSize=17;" parent="1" vertex="1">
          <mxGeometry x="-200" y="555" width="220" height="30" as="geometry" />
        </mxCell>
        <mxCell id="15" value="&lt;b&gt;&lt;font style=&quot;font-size: 25px&quot;&gt;Estructura&lt;/font&gt;&lt;/b&gt;" style="text;html=1;strokeColor=none;fillColor=none;align=center;verticalAlign=middle;whiteSpace=wrap;rounded=0;fontSize=17;" parent="1" vertex="1">
          <mxGeometry x="-80" y="50" width="60" height="30" as="geometry" />
        </mxCell>
        <mxCell id="17" value="&lt;font style=&quot;font-size: 16px&quot;&gt;contenido.yml&lt;/font&gt;" style="rounded=0;whiteSpace=wrap;html=1;fontSize=25;" parent="1" vertex="1">
          <mxGeometry x="-180" y="780" width="150" height="70" as="geometry" />
        </mxCell>
        <mxCell id="18" value="&lt;font style=&quot;font-size: 16px&quot;&gt;contenido.schema.yml&lt;/font&gt;" style="rounded=0;whiteSpace=wrap;html=1;fontSize=25;" parent="1" vertex="1">
          <mxGeometry x="-205" y="870" width="200" height="70" as="geometry" />
        </mxCell>
        <mxCell id="19" value="&lt;font style=&quot;font-size: 16px&quot;&gt;contenido.yml&lt;/font&gt;" style="rounded=0;whiteSpace=wrap;html=1;fontSize=25;" parent="1" vertex="1">
          <mxGeometry x="180" y="720" width="150" height="70" as="geometry" />
        </mxCell>
        <mxCell id="20" value="&lt;font style=&quot;font-size: 16px&quot;&gt;index.html.mustache&lt;/font&gt;" style="rounded=0;whiteSpace=wrap;html=1;fontSize=25;" parent="1" vertex="1">
          <mxGeometry x="150" y="810" width="200" height="70" as="geometry" />
        </mxCell>
        <mxCell id="21" value="&lt;font style=&quot;font-size: 16px&quot;&gt;partials.html.mustache&lt;/font&gt;" style="rounded=0;whiteSpace=wrap;html=1;fontSize=25;" parent="1" vertex="1">
          <mxGeometry x="150" y="900" width="200" height="70" as="geometry" />
        </mxCell>
        <mxCell id="22" value="&lt;font style=&quot;font-size: 16px&quot;&gt;partials.html.mustache&lt;/font&gt;" style="rounded=0;whiteSpace=wrap;html=1;fontSize=25;" parent="1" vertex="1">
          <mxGeometry x="160" y="910" width="200" height="70" as="geometry" />
        </mxCell>
        <mxCell id="23" value="&lt;font style=&quot;font-size: 16px&quot;&gt;partials.html.mustache&lt;/font&gt;" style="rounded=0;whiteSpace=wrap;html=1;fontSize=25;" parent="1" vertex="1">
          <mxGeometry x="170" y="920" width="200" height="70" as="geometry" />
        </mxCell>
        <mxCell id="24" value="&lt;b&gt;validacion&lt;/b&gt;" style="text;html=1;strokeColor=none;fillColor=none;align=center;verticalAlign=middle;whiteSpace=wrap;rounded=0;fontSize=16;" parent="1" vertex="1">
          <mxGeometry x="-135" y="670" width="60" height="30" as="geometry" />
        </mxCell>
        <mxCell id="25" value="( tailwind&amp;nbsp; + mustache )" style="text;html=1;strokeColor=none;fillColor=none;align=center;verticalAlign=middle;whiteSpace=wrap;rounded=0;fontSize=16;" parent="1" vertex="1">
          <mxGeometry x="-160" y="600" width="210" height="30" as="geometry" />
        </mxCell>
        <mxCell id="27" value="&lt;b&gt;Composicion&lt;/b&gt;" style="text;html=1;strokeColor=none;fillColor=none;align=center;verticalAlign=middle;whiteSpace=wrap;rounded=0;fontSize=16;" parent="1" vertex="1">
          <mxGeometry x="190" y="670" width="120" height="30" as="geometry" />
        </mxCell>
        <mxCell id="28" value="index.html" style="rounded=0;whiteSpace=wrap;html=1;fontSize=16;" parent="1" vertex="1">
          <mxGeometry x="560" y="800" width="120" height="60" as="geometry" />
        </mxCell>
        <mxCell id="29" value="" style="shape=flexArrow;endArrow=classic;html=1;fontSize=16;" parent="1" edge="1">
          <mxGeometry width="50" height="50" relative="1" as="geometry">
            <mxPoint x="20" y="830" as="sourcePoint" />
            <mxPoint x="100" y="830" as="targetPoint" />
          </mxGeometry>
        </mxCell>
        <mxCell id="30" value="" style="shape=flexArrow;endArrow=classic;html=1;fontSize=16;" parent="1" edge="1">
          <mxGeometry width="50" height="50" relative="1" as="geometry">
            <mxPoint x="420" y="830" as="sourcePoint" />
            <mxPoint x="500" y="830" as="targetPoint" />
          </mxGeometry>
        </mxCell>
        <mxCell id="31" value="&lt;font style=&quot;font-size: 16px&quot;&gt;diseno.yml&lt;/font&gt;" style="rounded=0;whiteSpace=wrap;html=1;fontSize=25;" parent="1" vertex="1">
          <mxGeometry x="-185" y="1100" width="150" height="70" as="geometry" />
        </mxCell>
        <mxCell id="32" value="&lt;font style=&quot;font-size: 16px&quot;&gt;diseno.schema.yml&lt;/font&gt;" style="rounded=0;whiteSpace=wrap;html=1;fontSize=25;" parent="1" vertex="1">
          <mxGeometry x="-210" y="1190" width="200" height="70" as="geometry" />
        </mxCell>
        <mxCell id="33" value="" style="shape=flexArrow;endArrow=classic;html=1;fontSize=16;" parent="1" edge="1">
          <mxGeometry width="50" height="50" relative="1" as="geometry">
            <mxPoint x="15" y="1150" as="sourcePoint" />
            <mxPoint x="95" y="1150" as="targetPoint" />
          </mxGeometry>
        </mxCell>
        <mxCell id="34" value="&lt;font style=&quot;font-size: 16px&quot;&gt;diseno.yml&lt;/font&gt;" style="rounded=0;whiteSpace=wrap;html=1;fontSize=25;" parent="1" vertex="1">
          <mxGeometry x="195" y="1100" width="150" height="70" as="geometry" />
        </mxCell>
        <mxCell id="35" value="&lt;font style=&quot;font-size: 16px&quot;&gt;tailwind.config.js.mustache&lt;/font&gt;" style="rounded=0;whiteSpace=wrap;html=1;fontSize=25;" parent="1" vertex="1">
          <mxGeometry x="170" y="1220" width="200" height="70" as="geometry" />
        </mxCell>
        <mxCell id="9dogb3Lnosqadhv23ghh-35" value="" style="shape=flexArrow;endArrow=classic;html=1;fontSize=16;" edge="1" parent="1">
          <mxGeometry width="50" height="50" relative="1" as="geometry">
            <mxPoint x="420" y="1170" as="sourcePoint" />
            <mxPoint x="500" y="1170" as="targetPoint" />
          </mxGeometry>
        </mxCell>
        <mxCell id="9dogb3Lnosqadhv23ghh-36" value="style.css" style="rounded=0;whiteSpace=wrap;html=1;fontSize=16;" vertex="1" parent="1">
          <mxGeometry x="560" y="1140" width="120" height="60" as="geometry" />
        </mxCell>
        <mxCell id="9dogb3Lnosqadhv23ghh-37" value="&lt;b&gt;Resultado&lt;/b&gt;" style="text;html=1;strokeColor=none;fillColor=none;align=center;verticalAlign=middle;whiteSpace=wrap;rounded=0;fontSize=16;" vertex="1" parent="1">
          <mxGeometry x="550" y="680" width="120" height="30" as="geometry" />
        </mxCell>
        <mxCell id="9dogb3Lnosqadhv23ghh-38" value="&lt;b&gt;contenido&lt;/b&gt;" style="text;html=1;strokeColor=none;fillColor=none;align=center;verticalAlign=middle;whiteSpace=wrap;rounded=0;fontSize=16;" vertex="1" parent="1">
          <mxGeometry x="-470" y="850" width="120" height="30" as="geometry" />
        </mxCell>
        <mxCell id="9dogb3Lnosqadhv23ghh-39" value="&lt;b&gt;DIseño&lt;/b&gt;" style="text;html=1;strokeColor=none;fillColor=none;align=center;verticalAlign=middle;whiteSpace=wrap;rounded=0;fontSize=16;" vertex="1" parent="1">
          <mxGeometry x="-470" y="1140" width="120" height="30" as="geometry" />
        </mxCell>
      </root>
    </mxGraphModel>
  </diagram>
</mxfile>
